<?xml version="1.0" encoding="UTF-8" standalone="no"?>
<svg width="406px" height="382px" viewBox="0 0 406 382" version="1.1" xmlns="http://www.w3.org/2000/svg" xmlns:xlink="http://www.w3.org/1999/xlink" xmlns:sketch="http://www.bohemiancoding.com/sketch/ns">
    <title>Untitled 2</title>
    <description>Created with Sketch (http://www.bohemiancoding.com/sketch)</description>
    <defs></defs>
    <g id="Page-1" stroke="none" stroke-width="1" fill="none" fill-rule="evenodd" sketch:type="MSPage">
        <g id="huia" sketch:type="MSLayerGroup" transform="translate(1.000000, -3.000000)">
            <g id="layer1" transform="translate(0.000000, 3.000000)" fill="#000000" sketch:type="MSShapeGroup">
                <path d="M332.41494,379.85051 C332.07624,379.30247 332.41994,379.24449 333.23836,379.7115 C334.18392,380.2509 334.3161,380.18097 333.64287,379.4975 C333.09287,378.93913 330.50537,377.68698 327.89287,376.71494 C325.08944,375.67185 323.08559,374.2861 323.00309,373.33344 C322.40771,366.45794 325.53197,354.29034 329.22418,349.10511 C330.27946,347.62311 331.14287,345.89871 331.14287,345.27312 C331.14287,344.64752 332.05391,343.15779 333.1674,341.9626 C334.28089,340.76741 334.97554,339.22563 334.71107,338.53644 C334.4466,337.84724 334.63107,337.03562 335.12096,336.73284 C337.03294,335.55117 339.48948,324.4013 339.56465,316.56362 C339.63805,308.91321 339.45453,308.17515 336.60285,304.6504 C332.83213,299.98969 327.29716,297.87407 321.14287,298.74114 C318.66787,299.08985 315.74287,299.92595 314.64287,300.59914 C307.55909,304.93438 295.72156,305.69593 272.64287,303.30117 C258.86302,301.8713 260.5992,301.72305 237.64287,306.28982 C234.34287,306.94629 231.41787,307.7913 231.14287,308.1676 C230.86787,308.5439 226.81787,309.88026 222.14287,311.1373 C217.46787,312.39433 212.51059,313.76693 211.12669,314.18753 C207.3691,315.32953 197.37931,313.64951 187.45624,310.20679 C175.71898,306.13466 166.14331,304.21739 157.64287,304.23748 C144.15231,304.26938 128.09039,309.31737 124.6182,314.61661 C123.68645,316.03864 122.4538,316.91146 121.87898,316.55621 C121.27725,316.18432 121.13118,316.39136 121.53467,317.04422 C122.57703,318.73081 120.10398,326.02106 118.25024,326.72629 C116.9621,327.21635 116.89112,327.0877 117.89287,326.07855 C118.58037,325.38596 119.14287,324.37329 119.14287,323.82817 C119.14287,323.28305 118.51793,323.6917 117.75411,324.73628 C116.9903,325.78086 116.61677,327.29069 116.92405,328.09145 C117.28369,329.02866 117.06592,329.28977 116.31281,328.82433 C115.258,328.17242 114.68424,329.37361 115.03471,331.5001 C115.10551,331.92953 114.26353,333.24678 113.1637,334.42732 C112.06386,335.60786 111.38889,336.79865 111.66376,337.07353 C111.93864,337.3484 112.86726,336.70615 113.72736,335.6463 C114.58746,334.58645 114.95551,334.3943 114.54523,335.2193 C113.47343,337.37453 107.21582,343.85593 103.24908,346.91943 C99.31363,349.95875 95.41907,350.90895 81.64287,352.19094 C73.16389,352.97997 69.96974,352.81603 60.64287,351.11312 C44.86929,348.23317 32.22851,344.37157 24.36245,340.02992 C22.55823,339.03408 20.30823,338.21241 19.36245,338.20399 C18.01627,338.19199 17.93749,338.002 18.99963,337.32899 C20.00592,336.69137 20.05332,336.28199 19.1831,335.74416 C18.53779,335.34534 17.76118,335.26766 17.45729,335.57155 C16.73685,336.29198 13.77492,333.31995 13.5265,331.62735 C13.42068,330.9064 12.16608,327.84752 10.73849,324.82984 C9.3109,321.81216 8.14287,318.83873 8.14287,318.22221 C8.14287,317.60569 7.72949,317.35675 7.22424,317.66901 C6.38759,318.18609 4.75292,313.56502 4.66258,310.42742 C4.64208,309.71689 4.10993,308.81689 3.47994,308.42742 C1.89951,307.45039 0.91683,297.51018 2.16932,295.16988 C2.97815,293.65857 2.88911,293.37945 1.73897,293.8208 C0.64891,294.23909 0.43396,293.8218 0.87336,292.14192 C1.21995,290.81654 1.06248,290.15095 0.48654,290.5069 C-0.09814,290.86825 -0.37361,289.43766 -0.20544,286.91327 C0.34833,278.60055 1.24589,274.63501 3.68624,269.7193 C5.90835,265.24321 7.29351,264.03986 16.90565,258.23502 C40.32258,244.09338 86.63244,211.66697 95.80384,202.99008 C98.45683,200.48014 98.89439,199.43186 98.52665,196.46694 C97.9795,192.05555 101.3792,185.18393 111.99762,169.23884 C120.38584,156.6427 137.47082,138.14756 150.14287,127.94517 C154.26787,124.62409 166.19287,116.26933 176.64287,109.37905 C198.53107,94.9469 206.1696,88.64142 213.01119,79.35755 C217.22281,73.64251 224.74275,60.4292 222.65711,62.40869 C222.25761,62.78786 220.87904,62.04638 219.59363,60.76097 C218.30821,59.47555 216.89344,58.26101 216.44969,58.06198 C214.24078,57.07127 210.04442,51.21234 209.69933,48.63717 C209.48428,47.03234 208.82357,43.60134 208.23109,41.01273 C207.63862,38.42411 207.21916,34.59911 207.29898,32.51273 C207.53919,26.23345 206.58525,24.93623 199.10542,21.37058 C188.16395,16.15476 183.0238,15.06067 168.43983,14.84332 C161.17816,14.7351 154.91101,14.32077 154.51283,13.92259 C152.77361,12.18337 167.92536,4.3308 178.14287,1.67606 C185.06719,-0.12304 188.31058,-0.20994 222.64287,0.48387 C247.51217,0.98645 252.89369,2.12741 263.02306,9.04502 C274.69191,17.01399 279.45858,25.11614 288.68166,52.65827 C293.13161,65.94679 295.40759,71.14323 299.24279,76.77102 C307.49526,88.88076 311.15608,99.22956 312.66922,114.72632 C314.81608,136.71321 302.80714,165.70494 283.79072,184.44421 C280.57204,187.61598 277.46501,189.91839 276.88621,189.56068 C276.30741,189.20296 276.08633,189.3188 276.39491,189.8181 C276.7035,190.3174 275.1238,192.07443 272.88448,193.72261 C270.64517,195.37079 266.85832,198.1818 264.46928,199.9693 C262.08024,201.7568 259.9096,203.2193 259.64565,203.2193 C258.97354,203.2193 255.483,206.12987 251.51064,210.00263 C249.65837,211.80847 248.14287,213.05602 248.14287,212.77498 C248.14287,212.17396 242.52698,218.39675 235.86582,226.37879 C233.2682,229.49151 231.14287,232.49151 231.14287,233.04546 C231.14287,233.5994 230.66378,234.21233 230.07823,234.40751 C228.49988,234.93363 235.03728,242.99279 241.75998,248.80851 C247.89119,254.11254 276.41193,273.2193 278.19807,273.2193 C278.76153,273.2193 281.00697,272.30896 283.18792,271.19632 C286.76168,269.37312 287.42437,269.31536 289.89808,270.61146 C291.40772,271.40243 293.66594,273.01515 294.91636,274.19528 C298.11627,277.21533 303.99323,279.47367 306.81165,278.7663 C310.36295,277.87497 335.85224,261.07861 341.89287,255.64925 C344.78037,253.05395 347.14287,250.3205 347.14287,249.57491 C347.14287,248.82932 347.66787,248.2193 348.30954,248.2193 C348.9512,248.2193 349.18806,247.93116 348.83589,247.57898 C348.48371,247.22681 348.83617,245.76431 349.61913,244.32898 C350.40208,242.89366 352.70225,238.1193 354.7306,233.7193 C356.75896,229.3193 361.66006,220.7693 365.62194,214.7193 C369.58382,208.6693 374.50173,201.15262 376.55064,198.01557 C380.33062,192.2281 383.73971,189.94894 385.16558,192.25605 C385.59074,192.94397 385.47334,194.84147 384.90469,196.4727 C383.88234,199.40542 384.37194,212.17509 385.62909,215.3665 C386.07598,216.50098 385.02459,218.17336 382.25133,220.73927 C380.03669,222.78833 378.3188,224.95164 378.43379,225.54661 C378.54879,226.14159 378.07773,226.64885 377.38701,226.67385 C376.69628,226.69885 374.37196,229.31128 372.22186,232.47925 C369.20553,236.92351 367.72215,240.70848 365.72772,249.04951 C362.09395,264.24658 362.21402,266.27554 366.89287,268.73852 C372.03545,271.4456 380.84906,279.84633 383.6444,284.70528 C384.91448,286.91299 386.7659,291.34647 387.75867,294.55746 C389.93048,301.58196 393.3756,304.83174 399.64762,305.77228 C404.1748,306.45118 404.86854,307.02424 403.27578,308.7693 C401.32349,310.90829 399.14287,319.97661 399.14287,325.95646 C399.14287,330.5183 398.81435,332.1343 397.99047,331.62511 C397.35665,331.23339 394.76915,330.98199 392.24047,331.06646 C389.01272,331.17427 386.56111,330.54953 384.01218,328.96966 C379.25801,326.02294 373.14287,320.55452 373.14287,319.24985 C373.14287,318.68305 372.73744,318.2193 372.24193,318.2193 C371.74641,318.2193 370.5187,316.23122 369.51369,313.80134 C368.50869,311.37146 367.26264,309.64528 366.7447,309.96538 C366.21219,310.29449 366.08705,309.80715 366.45672,308.84381 C367.15467,307.02497 365.81645,304.10079 362.76194,300.77022 C360.89868,298.73856 360.88755,298.75685 361.57662,302.7193 C362.64641,308.87108 362.20324,319.03193 360.55194,326.21282 C359.00347,332.94651 353.62062,343.87264 349.71025,348.2193 C346.87475,351.37117 342.74773,358.2193 343.68376,358.2193 C344.07096,358.2193 343.87467,358.83754 343.24755,359.59317 C341.4959,361.70378 341.17532,371.23796 342.70581,375.70505 C344.48652,380.90246 343.20321,382.3644 338.98517,379.94358 C336.87457,378.73226 336.07081,378.58914 336.41494,379.48592 C336.99309,380.99256 333.32728,381.32669 332.41494,379.85051 L332.41494,379.85051 Z M197.14287,287.58873 C197.14287,287.24192 195.59021,284.79697 193.69251,282.15552 C191.42081,278.99347 190.6522,277.18622 191.44251,276.86503 C192.10271,276.59672 191.82881,276.34167 190.83385,276.29825 C189.83889,276.25485 189.30295,275.7693 189.64287,275.2193 C189.98279,274.6693 189.55937,274.2193 188.70189,274.2193 C187.84443,274.2193 187.14287,273.85099 187.14287,273.40082 C187.14287,272.22664 172.09476,256.88911 168.86904,254.77554 C167.37909,253.79928 166.45071,252.53023 166.80596,251.95541 C167.16122,251.38059 166.98335,251.19986 166.41069,251.55378 C165.83802,251.9077 164.8134,251.52728 164.13373,250.70829 C163.45407,249.88935 162.33318,249.2193 161.64287,249.2193 C160.95256,249.2193 159.82756,248.5443 159.14287,247.7193 C158.45818,246.8943 157.51808,246.2193 157.05376,246.2193 C155.34647,246.2193 149.14287,253.34939 149.14287,255.31165 C149.14287,256.42578 148.69287,257.05922 148.14287,256.7193 C147.59287,256.37938 147.14287,256.8028 147.14287,257.66028 C147.14287,258.51774 146.69287,259.2193 146.14287,259.2193 C145.59287,259.2193 145.14287,260.37086 145.14287,261.77832 C145.14287,263.18578 144.72396,264.07844 144.21197,263.76201 C143.69997,263.44557 142.96732,263.69431 142.58385,264.31479 C142.20039,264.93525 142.48605,265.81333 143.21854,266.26607 C144.25224,266.90493 144.29938,267.60755 143.42909,269.40426 C141.59277,273.19535 140.1316,278.39205 140.66108,279.24876 C140.93292,279.68861 140.62288,280.22597 139.97205,280.44291 C139.32124,280.65984 139.07185,281.29537 139.41784,281.85519 C139.81404,282.49627 142.00808,282.59399 145.34489,282.11918 C155.9853,280.60511 163.73917,281.09792 171.78797,283.79981 C176.01593,285.21909 181.31291,286.74479 183.55902,287.19024 C188.60564,288.19111 197.14287,288.44155 197.14287,287.58873 L197.14287,287.58873 Z M247.51031,278.34473 C249.20503,277.67862 249.05694,277.27059 245.90909,273.9329 C244.00133,271.91009 242.69727,269.99823 243.01118,269.68433 C243.32508,269.37042 242.91017,269.37136 242.08916,269.68633 C241.07685,270.0748 240.22642,269.27893 239.4468,267.21347 C238.81451,265.53834 237.92496,264.2508 237.47003,264.35226 C235.54319,264.78199 233.29899,262.97595 233.87962,261.46285 C234.33825,260.26769 234.0609,260.0367 232.76454,260.53416 C231.73772,260.92818 231.28639,260.79602 231.64995,260.20777 C231.98597,259.66407 231.76471,259.21922 231.15824,259.21922 C230.55178,259.21922 228.84232,258.09422 227.35944,256.71922 C225.87657,255.34422 224.02121,254.21922 223.23642,254.21922 C222.45163,254.21922 222.08458,253.94417 222.42075,253.608 C223.10584,252.92292 218.87969,249.16748 215.30722,247.28677 C214.02262,246.61049 213.19282,245.83593 213.46323,245.56552 C213.73365,245.29511 212.31624,243.57216 210.31345,241.73673 C207.21804,238.9 206.68787,237.79452 206.77781,234.36439 C206.83601,232.14503 207.80789,228.55594 208.93755,226.38864 C210.78452,222.84515 210.84225,222.23503 209.51047,220.33365 C208.43497,218.79825 206.96592,218.2193 204.14518,218.2193 C202.00883,218.2193 199.98279,218.6693 199.64287,219.2193 C199.30295,219.7693 198.20359,220.2193 197.19985,220.2193 C194.74508,220.2193 185.1293,230.02036 185.81948,231.81895 C186.14003,232.65427 185.72108,233.2193 184.78124,233.2193 C183.78565,233.2193 183.41933,233.77617 183.78613,234.73203 C184.1054,235.56404 183.83503,236.88527 183.18535,237.66811 C181.81013,239.32516 182.44728,240.7895 187.96468,248.65223 C196.48422,260.79323 211.48301,277.2193 214.04953,277.2193 C214.85497,277.2193 216.5273,276.26733 217.76581,275.10381 L220.01765,272.98831 L228.33026,276.05089 C236.42578,279.03349 243.58086,279.8892 247.51031,278.34473 L247.51031,278.34473 Z" id="path3050"></path>
            </g>
            <path d="M239.804206,40.5251401 C243.446398,46.254772 244.051678,52.7884198 240.755612,57.4956908 C235.920021,64.4016304 224.518618,64.7614799 215.289864,58.299437 C206.061111,51.8373942 202.499749,41.0005045 207.33534,34.0945649 C208.447285,32.5065434 209.90641,31.2646599 211.606465,30.3722677 C214.413063,33.1748438 218.055891,35.6914313 222.308757,37.5849291 C228.425682,40.3083597 234.656079,41.2314293 239.804209,40.5251453 Z" id="Oval-1" fill="#FAA530" sketch:type="MSShapeGroup"></path>
        </g>
    </g>
</svg>